<svg xmlns="http://www.w3.org/2000/svg" width="87.174" height="16.408" viewBox="0 0 87.174 16.408">
  <g id="Grupo_182617" data-name="Grupo 182617" transform="translate(3 -513.658)">
    <path id="star_FILL0_wght400_GRAD0_opsz48" d="M6.678,20l1.137-5.176L4,11.342l5.04-.461L11,6l1.96,4.882,5.04.461-3.815,3.482L15.322,20,11,17.255Z" transform="translate(65 509)" fill="none" stroke="#7315be" stroke-width="1"/>
    <path id="star_FILL0_wght400_GRAD0_opsz48-2" data-name="star_FILL0_wght400_GRAD0_opsz48" d="M6.678,20l1.137-5.176L4,11.342l5.04-.461L11,6l1.96,4.882,5.04.461-3.815,3.482L15.322,20,11,17.255Z" transform="translate(47 509)" fill="#7315be"/>
    <path id="star_FILL0_wght400_GRAD0_opsz48-3" data-name="star_FILL0_wght400_GRAD0_opsz48" d="M6.678,20l1.137-5.176L4,11.342l5.04-.461L11,6l1.96,4.882,5.04.461-3.815,3.482L15.322,20,11,17.255Z" transform="translate(29 509)" fill="#7315be"/>
    <path id="star_FILL0_wght400_GRAD0_opsz48-4" data-name="star_FILL0_wght400_GRAD0_opsz48" d="M6.678,20l1.137-5.176L4,11.342l5.04-.461L11,6l1.96,4.882,5.04.461-3.815,3.482L15.322,20,11,17.255Z" transform="translate(11 509)" fill="#7315be"/>
    <path id="star_FILL0_wght400_GRAD0_opsz48-5" data-name="star_FILL0_wght400_GRAD0_opsz48" d="M6.678,20l1.137-5.176L4,11.342l5.04-.461L11,6l1.96,4.882,5.04.461-3.815,3.482L15.322,20,11,17.255Z" transform="translate(-7 509)" fill="#7315be"/>
  </g>
</svg>
